<svg xmlns="http://www.w3.org/2000/svg" data-name="Layer 1" viewBox="0 0 100 125" x="0px" y="0px"><title>Security badge</title><path d="M91.06,19.25a1.51,1.51,0,0,0-1-1.66Q70.48,9,51,.23a2.1,2.1,0,0,0-1.89,0Q29.5,8.95,9.91,17.62a1.36,1.36,0,0,0-1,1.48C9,28,8.9,36.91,9,45.81a57.21,57.21,0,0,0,11.4,34c7.1,9.56,16.18,16.41,27.69,19.87a6.34,6.34,0,0,0,3.81,0A52.24,52.24,0,0,0,78.54,81.21a57.42,57.42,0,0,0,12.5-36c0-3.85,0-7.69,0-11.54C91,28.87,91,24.06,91.06,19.25ZM84,36.47c0,3.19,0,6.38,0,9.56A47.59,47.59,0,0,1,73.66,75.87,43.3,43.3,0,0,1,51.57,91.21a5.25,5.25,0,0,1-3.16,0A43.81,43.81,0,0,1,25.46,74.72,47.42,47.42,0,0,1,16,46.53c-0.08-7.38,0-14.76,0-22.14a1.13,1.13,0,0,1,.81-1.22Q33,16,49.23,8.74a1.74,1.74,0,0,1,1.57,0Q67,16,83.18,23.13A1.25,1.25,0,0,1,84,24.51C84,28.5,84,32.48,84,36.47Z"/><path d="M64,35.14a1.43,1.43,0,0,0-2.17.23c-0.37.37-.7,0.78-1.06,1.16l-12.19,13-4,4.23-0.33-.23L40,50.18c-0.76-.6-1.52-1.19-2.3-1.76a1.36,1.36,0,0,0-1.63-.14,11.69,11.69,0,0,0-1.66,1.34A1.13,1.13,0,0,0,34.26,51a10.38,10.38,0,0,0,.63,1.07L43.4,64.46a1.5,1.5,0,0,0,2.63,0Q55.32,52,64.61,39.57c0.4-.54.76-1.12,1.11-1.7a1.11,1.11,0,0,0-.18-1.48A12.29,12.29,0,0,0,64,35.14Z"/></svg>