<svg xmlns="http://www.w3.org/2000/svg" xmlnsXlink="http://www.w3.org/1999/xlink" version="1.1" x="0px" y="0px" viewBox="0 0 100 125" enable-background="new 0 0 100 100" xmlSpace="preserve"><path d="M5.608,17.958c0,0,4.458,10.558,6.964,16.21c0.823,1.855,1.435,3.182,1.61,3.433c0.548,0.786,1.703,1.277,3.832,0  c2.129-1.277,2.513-2.921,2.007-3.892c-0.154-0.296-1.101-1.395-2.441-2.885C13.458,26.24,5.608,17.958,5.608,17.958z"/><path d="M72.626,48.456c4.471,7.291,8.272,16.289,13.365,19.808c3.237,2.238,11.767,2.375,8.118,5.659  c-1.038,0.934-8.073,1.732-8.073,1.732s-1.282,8.606-3.147,5.839c-2.828-4.196-9.911-13.437-16.597-13.665  c-6.437-0.221-19.689,3.28-27.479,3.28c-9.337,0-17.527-2.363-23.646-6.463c0,0-5.234,2.344-7.985,0.589  c-1.147-0.731,2.958-4.771,2.958-4.771C6.78,56.946,5,52.942,5,48.456c0-12.511,15.139-22.653,33.813-22.653  S66.086,37.791,72.626,48.456z M8.953,45.324c-0.655,0-1.186,0.531-1.186,1.186s0.531,1.186,1.186,1.186  c0.655,0,1.186-0.531,1.186-1.186S9.608,45.324,8.953,45.324z M27.197,45.324c-0.655,0-1.186,0.531-1.186,1.186  s0.531,1.186,1.186,1.186s1.186-0.531,1.186-1.186S27.852,45.324,27.197,45.324z M18.202,37.914  c2.315-1.389,2.733-3.241,2.143-4.374c-0.1-0.192-0.406-0.641-2.432-2.893l-0.667,0.361c1.913,2.126,2.381,2.732,2.452,2.869  c0.438,0.839,0.039,2.265-1.871,3.411c-1.576,0.945-2.732,0.98-3.344,0.104c-0.083-0.118-0.439-0.802-1.618-3.46l-0.625,0.516  c1.24,2.796,1.532,3.202,1.645,3.362c0.248,0.355,0.812,0.934,1.85,0.934C16.368,38.744,17.178,38.528,18.202,37.914z   M22.728,53.504c0-0.302-0.245-0.548-0.547-0.548s-0.547,0.246-0.547,0.548c0,1.17-1.483,2.159-3.238,2.159  c-1.755,0-3.239-0.989-3.239-2.159c0-0.302-0.245-0.548-0.547-0.548s-0.547,0.246-0.547,0.548c0,1.794,1.944,3.254,4.333,3.254  C20.784,56.758,22.728,55.298,22.728,53.504z M39.479,60.766c0.274-0.127,0.395-0.452,0.268-0.727s-0.452-0.396-0.727-0.268  c-0.03,0.014-3.108,1.409-6.568,1.063c-0.2-0.021-0.672-0.091-0.745-0.313c-0.217-0.661,1.315-2.617,2.881-4.028  c0.224-0.203,0.243-0.549,0.04-0.773c-0.202-0.225-0.548-0.243-0.773-0.04c-0.885,0.797-3.731,3.526-3.188,5.184  c0.138,0.421,0.541,0.947,1.676,1.061c0.424,0.042,0.841,0.062,1.249,0.062C36.789,61.985,39.357,60.821,39.479,60.766z"/><polygon points="12.462,25 8.711,25 8.555,25 12.122,25 "/></svg>