<svg xmlns="http://www.w3.org/2000/svg" xmlnsXlink="http://www.w3.org/1999/xlink" version="1.1" x="0px" y="0px" viewBox="0 0 100 125" enable-background="new 0 0 100 100" xmlSpace="preserve"><path d="M5.608,17.958c0,0,4.458,10.558,6.964,16.21c0.823,1.855,1.435,3.182,1.61,3.433c0.548,0.786,1.703,1.277,3.832,0  c2.129-1.277,2.513-2.921,2.007-3.892c-0.154-0.296-1.101-1.395-2.441-2.885C13.458,26.24,5.608,17.958,5.608,17.958z"/><path d="M83.628,82.542c-0.422,0-0.81-0.259-1.154-0.769c-2.086-3.096-9.42-13.214-16.198-13.444  c-3.174-0.112-7.998,0.695-13.122,1.549c-5.113,0.851-10.401,1.731-14.34,1.731c-9.149,0-17.336-2.211-23.699-6.397  c-0.762,0.312-3.071,1.175-5.286,1.175c-1.174,0-2.155-0.246-2.915-0.73c-0.244-0.155-0.396-0.405-0.427-0.703  c-0.125-1.187,1.924-3.444,2.958-4.5C6.163,56.873,4.5,52.84,4.5,48.456c0-12.767,15.393-23.153,34.313-23.153  c18.64,0,27.448,11.816,34.239,22.892c1.223,1.993,2.406,4.133,3.551,6.203c3.117,5.637,6.062,10.96,9.673,13.455  c1.074,0.742,2.808,1.251,4.483,1.743c2.368,0.696,4.413,1.297,4.707,2.587c0.151,0.666-0.183,1.356-1.021,2.112  c-1.014,0.911-6.208,1.601-7.973,1.812C86.12,78.309,85.233,82.542,83.628,82.542z M65.681,67.319c0.216,0,0.426,0.003,0.629,0.01  c7.054,0.24,14.234,9.791,16.994,13.886c0.18,0.268,0.302,0.326,0.324,0.327c0.479-0.026,1.418-2.637,1.914-5.961l0.057-0.38  l0.381-0.044c2.855-0.323,7.161-1.035,7.796-1.606c0.522-0.47,0.776-0.877,0.715-1.146c-0.163-0.718-2.298-1.345-4.014-1.849  c-1.752-0.515-3.563-1.047-4.77-1.881c-3.804-2.628-6.804-8.052-9.979-13.793c-1.139-2.061-2.317-4.19-3.527-6.165  c-6.65-10.844-15.263-22.414-33.387-22.414C20.444,26.303,5.5,36.241,5.5,48.456c0,4.264,1.683,8.188,5.002,11.662l0.34,0.356  l-0.351,0.346c-1.717,1.69-3.123,3.576-3.009,4.035c0.566,0.338,1.366,0.531,2.346,0.531c2.428,0,5.108-1.185,5.135-1.196  l0.252-0.113l0.23,0.154c6.228,4.172,14.309,6.378,23.368,6.378c3.857,0,9.103-0.874,14.176-1.719  C57.845,68.083,62.431,67.319,65.681,67.319z"/><circle cx="8.953" cy="46.51" r="1.186"/><circle cx="27.197" cy="46.51" r="1.186"/><path d="M22.728,53.504c0-0.302-0.245-0.548-0.547-0.548c-0.302,0-0.547,0.246-0.547,0.548c0,1.17-1.483,2.159-3.238,2.159  s-3.239-0.989-3.239-2.159c0-0.302-0.245-0.548-0.547-0.548c-0.302,0-0.547,0.246-0.547,0.548c0,1.794,1.944,3.254,4.333,3.254  C20.784,56.758,22.728,55.298,22.728,53.504z"/><path d="M39.479,60.766c0.274-0.127,0.395-0.451,0.268-0.727s-0.452-0.396-0.727-0.268c-0.03,0.014-3.108,1.408-6.568,1.063  c-0.2-0.021-0.672-0.091-0.745-0.313c-0.217-0.662,1.315-2.617,2.881-4.028c0.224-0.203,0.243-0.55,0.04-0.772  c-0.202-0.226-0.548-0.244-0.773-0.041c-0.885,0.797-3.731,3.526-3.188,5.185c0.138,0.421,0.541,0.946,1.676,1.061  c0.424,0.042,0.841,0.062,1.249,0.062C36.789,61.984,39.357,60.82,39.479,60.766z"/><polygon points="12.462,25 8.711,25 8.555,25 12.122,25 "/></svg>